# xmcd CD database file
#
# Track frame offsets:
#	150
#	21512
#	42375
#
# Disc length: 797 seconds
#
# Revision: 0
# Processed by: cddbd v1.5PL3 Copyright (c) Steve Scherf et al.
# Submitted via: CDex 1.51
#
DISCID=22031b03
DTITLE=工藤静香 - 深紅の花
DYEAR=2000
DGENRE=JPop
TTITLE0=深紅の花
TTITLE1=足下を飾る太陽
TTITLE2=PRAY
EXTD=YEAR: 2000
EXTT0=
EXTT1=
EXTT2=
PLAYORDER=
